<svg id="Layer_2" data-name="Layer 2" xmlns="http://www.w3.org/2000/svg" width="55mm" height="55mm" viewBox="0 0 155.91 155.91">
  <defs>
    <style>
      .cls-1 {
        fill: #1d1d1b;
      }
    </style>
  </defs>
  <g>
    <path class="cls-1" d="M11.4,64.22c-.35-7.26,0-14.52-.28-21.78-.28-6.9-2.37-13.36-3-20.19l-4.71.63c2.45,6.47,9.22,19,17.2,11C23.88,30.7,32,17.13,24.9,13.55c-8.3-4.17-6.25,17.52-6.15,20.21C19.19,46.87,20.22,60,21.31,73c1.06,12.66,2.23,25.31,3.06,38,.37,5.68.7,11.37.69,17.07,0,2.48,0,5-.17,7.47-.24,2.83-1.26,11-4.35,12.4-3.88,1.73-6.57-7.47-7.13-10a44.66,44.66,0,0,1-.57-13.41c.74-9,3.13-17.89,6-26.43a166.25,166.25,0,0,1,9-22C32.72,66.31,36,57,36.66,45.86h-4.8c.74,6.2-.38,12.53.28,18.77.44,4.16,2,13,7.57,13.42,6.14.45,7.74-9.39,8.37-13.73,1-6.54,2.12-13.9.6-20.42-.71-3-5.16-1.72-4.63,1.27,1,5.34,1.82,34.71,14.21,28.28,4.06-2.1,4.81-8.06,5.33-12,1-7.55.87-15.22,1.39-22.81.21-3.13-4.45-3-4.8,0-.9,7.87,4.35,13,8.35,19.07,2.53,3.86,5.07,8.61,3.29,13.26C71,73,71,72.05,71,70.32a10.24,10.24,0,0,1,1.58-4.68c1.16-2.2,2.53-4.3,3.84-6.42,4.92-8,7.06-15.84,7.52-25.24.43-9.11-.85-18.1-1.11-27.19-.09-3.08-4.84-3.1-4.8,0,.21,14.16.52,28.36,2.28,42.42.59,4.64.83,22.11,8.46,21.8,2.77-.12,4.4-3.26,5.45-5.41,2.59-5.29,3.56-11,3.89-16.87A299.62,299.62,0,0,0,97.08,5h-4.8c2.17,16.46,1.25,33.19,3.89,49.65.7,4.39,1.56,13.33,6.63,15.21,6.49,2.4,7.53-8.48,8-12.35,1-8.8,1.83-19.28-.35-28-.65-2.58-4.85-2.09-4.71.64.31,6.18.49,12.37,1.25,18.52.59,4.82,1.13,11.09,4.57,14.88,4.43,4.91,8.15.12,9.56-4.57,2.84-9.4,2.13-19.29,2.66-29,.18-3.13-4.46-3-4.8,0-2.23,20.17,1,41.07,2.22,61.21q.81,13.56,1,27.15.1,6.8,0,13.61c0,3.79.77,9.31-.81,12.84-.36.82-2.06,3.41-3,3.6s-2.31-2.17-2.84-3.12a20.17,20.17,0,0,1-1.81-5.48,55.73,55.73,0,0,1-1-14.35,85.61,85.61,0,0,1,5.1-25.25,173.65,173.65,0,0,1,12.06-25.87c4.28-7.72,10.52-19,20.29-20.19,3-.38,3.06-5.19,0-4.8-8.08,1-13.8,6.64-18.44,13-6,8.21-10.54,17.72-14.66,27-7.36,16.52-13.59,38.78-6.52,56.47,1.93,4.83,7,10.13,12.25,6,6.25-5,4.27-17.79,4.27-24.63,0-19.2-1.37-38.23-2.71-57.36-.91-13.07-2-26.7-.58-39.75H119c-.4,7.4.08,15-1.2,22.3-.2,1.1-1,7.55-2.27,8-.92.36-2-3.1-2.22-4-2.52-8.37-2.32-17.54-2.75-26.2l-4.72.64c2,8.08,1.15,18,.23,26.21a44.32,44.32,0,0,1-1.32,6.87,4.73,4.73,0,0,1-.68,1.52c-.34.43.39-.08.54,0-2-1.64-2.49-5.51-3-7.83C97.84,40.31,99.38,22.46,97.08,5c-.4-3-5.09-3.13-4.8,0a321.66,321.66,0,0,1,1.39,32.26c-.06,5.46,0,11.12-.83,16.54-.23,1.48-3,12.57-4.42,12S86.19,56.49,86,55.06c-.8-5.18-1.41-10.37-1.84-15.6C83.23,28.6,83,17.69,82.84,6.79H78c.36,12.61,2.55,25.18-.18,37.7C76.45,51,72.5,56.1,69.28,61.74c-2.09,3.64-4.2,8-2.4,12.17,1.06,2.49,3.62,4.3,6.3,2.89,3.41-1.78,4.33-6.86,4-10.3C76.29,55.91,63.76,49.24,65,38.6h-4.8c-.34,5-.44,10-.72,15-.24,4.36-.12,9.88-2.18,13.87C54.5,72.86,52,64.22,51.5,61.79c-1.25-5.9-1.76-11.95-2.82-17.89l-4.63,1.27c1.07,4.57.34,9.77-.16,14.37a71.56,71.56,0,0,1-1.07,7.27,20.21,20.21,0,0,1-.77,2.84c-.66,1.79-1.24,3.79-2.93,2.34-3-2.57-2.48-10.44-2.49-13.86,0-4.07.51-8.23,0-12.27a2.4,2.4,0,0,0-4.8,0c-.61,10-3.45,18.53-8,27.34a159.56,159.56,0,0,0-6.64,15.16c-5.6,14.46-10.9,31-9.14,46.72.68,6,3,14.86,9.1,17.57,8.07,3.57,11.58-9.77,12.27-15.09,1.34-10.31.09-21.19-.65-31.5-.86-11.91-1.95-23.8-2.94-35.7-1.09-13.28-2.1-26.59-2.44-39.92-.08-2.86-.27-5.79-.08-8.65,0,.28,1.36-5.67-.8-3.13-.53.61-.26,3.05-.57,4-.95,2.81-4.08,9.56-7.8,8.7-2.84-.65-5.26-7.41-6.13-9.71s-5-2.27-4.72.64C4,29.07,6,35.56,6.32,42.44c.3,7.26-.07,14.52.28,21.78.14,3.08,5,3.1,4.8,0Z"/>
    <path class="cls-1" d="M65.93,33c7.6,5,15.68-.29,22.78-3.73,10.29-5,20.92-9.85,32.61-9.28,3.09.15,3.08-4.65,0-4.8-8.86-.43-17.21,2-25.3,5.45-4.17,1.76-8.23,3.75-12.29,5.73-4.81,2.34-10.23,5.9-15.37,2.49-2.59-1.71-5,2.44-2.43,4.14Z"/>
  </g>
</svg>
