<svg xmlns="http://www.w3.org/2000/svg" xmlns:xlink="http://www.w3.org/1999/xlink" width="55mm" height="55mm" viewBox="0 0 155.91 155.91">
  <defs>
    <style>
      .cls-1 {
        fill: #1d1d1b;
      }
    </style>
  </defs>
  <g id="Layer_3" data-name="Layer 3">
    <image width="1080" height="1080" transform="scale(0.14)" xlink:href="../../../gradient.png"/>
    <g>
      <path class="cls-1" d="M32.14,68.53c-.23-5.15,0-10.31-.22-15.46-.22-4.55-1.58-8.83-2-13.34l-2.94.4c1.35,3.48,4.5,10.84,9.49,8.95,3.91-1.49,8.37-9.72,6.22-13.8-2-3.89-4.71,0-5.15,2.55-1.39,8.23.26,17.82.86,26.1.68,9.34,1.56,18.66,2.3,28,.68,8.52,1.88,17.52,1,26.06-.21,1.93-1.27,9.06-4.89,7.78-1.14-.4-2.36-3.66-2.71-4.68a25.68,25.68,0,0,1-1-9.47c.3-6.65,2-13.24,4.11-19.53,4.06-12.31,11.46-23,12.34-36.15h-3c.46,4.25-2.28,21.89,5.44,22C59,78,58.6,58.69,57.73,54.62c-.41-1.9-3.22-1.07-2.9.8C55.5,59.21,55.73,78,64,74.9c2.84-1.08,3.49-4.94,3.89-7.53.82-5.42.7-11,1.06-16.42.12-1.94-2.84-1.91-3,0-.43,5,2.41,8.27,5.13,12.18a21,21,0,0,1,2.38,4.2,8.29,8.29,0,0,1,.93,3.6l-1.16.68c1.9-2.78,3.57-6.31,5.21-9.31C84,52.16,81.52,40.12,81.16,29.13c-.06-1.93-3-1.94-3,0,.15,10,.37,20.12,1.7,30.1.39,3,.53,13.61,5.32,13.78,4.33.17,5.9-9.36,6.22-12,1.33-10.84.5-22.23-.47-33.07h-3c.92,7.17.8,14.5,1.33,21.71.46,6.22.25,15.06,3.66,20.59,3,4.83,6.17.68,6.94-3.12,1.4-6.82,1.86-15.48.24-22.3a1.51,1.51,0,0,0-2.95.39c.22,4.44.35,8.88.93,13.29.41,3.06.81,7.6,3.32,9.84,7.81,7,7.71-20.75,7.84-23.22.1-2-2.8-1.88-3,0-.89,8.37-.21,17,.28,25.39.73,12.37,1.83,24.66,2,37.06,0,3.87.08,7.75,0,11.62-.09,2.71.56,4.61-2.49,5.29s-2.9-1.19-3.51-3.74c-1.72-7.29-.76-15.34,1.16-22.48a99.74,99.74,0,0,1,8.2-19.66c3.44-6.64,7.93-15.87,16.11-17.12,1.9-.29,1.09-3.18-.8-2.89-12,1.84-18.37,18.54-22.58,28.19-4.75,10.91-8.48,25.16-4.39,36.88,1,3,3.36,6.76,7,5.64,4.54-1.38,4.23-8.21,4.28-11.87.24-14.92-.69-29.71-1.78-44.58-.67-9.11-1.4-18.62-.43-27.73h-3c-.22,4.26-.07,8.57-.5,12.81,0,.32-.71,8.47-2.82,7.52-.67-.3-1.06-2.9-1.23-3.57-1.29-5.41-1.27-11.14-1.54-16.67l-3,.4C98.5,51,98,57.49,97.43,63a23.33,23.33,0,0,1-.81,4.83c-.44,1.33-.08,1.77-1,1.09-1.31-1-1.63-4.91-1.89-6.37-2.12-11.44-1.33-23.14-2.8-34.63-.24-1.86-3.18-1.95-3,0a221.62,221.62,0,0,1,.95,22.46,68.78,68.78,0,0,1-.7,11.92,22.49,22.49,0,0,1-1.68,5.39c-.6,1.27-.85,2.06-1.52,1.75-1.23-.57-1.51-6.08-1.71-7.4-.55-3.55-1-7.1-1.25-10.68-.6-7.39-.75-14.81-.86-22.21h-3c.29,9,2.19,18.47-.46,27.25-1.55,5.13-10.45,13.54-7,19.23,2.51,4.15,6.09-.11,6.55-3.27,1.23-8.57-9-13.21-8.33-21.39h-3c-.38,5.63.84,14.35-1.86,19.45-2.34,4.44-4.09-2-4.56-4.34-.73-3.79-1.1-7.64-1.76-11.44l-2.9.8c.66,3,.26,6.36,0,9.41-.17,1.61-1,10.91-3.78,8.78-2-1.55-1.55-7.66-1.54-10a68.74,68.74,0,0,0,0-7.73,1.5,1.5,0,0,0-3,0c-.73,11-6.31,19.53-10.14,29.5-3.76,9.79-7.34,21-6.16,31.64.43,3.87,1.82,9.58,5.55,11.66,4.18,2.33,6.75-2.24,7.9-5.7,2.19-6.57,1.22-14.37.79-21.15-.51-8.25-1.26-16.49-1.95-24.73-.79-9.26-1.55-18.54-1.92-27.84q-.13-3.29-.19-6.57c0-.79-.05-1.6,0-2.39,0-.59.65-3.6.09-3-1.49,1.6-1.22,5-3.07,6.89-3.61,3.62-6.26-1.77-7.49-4.92-.56-1.43-3.12-1.43-2.95.4.43,4.5,1.79,8.8,2,13.34.26,5.15,0,10.31.22,15.46.08,1.92,3.08,1.94,3,0Z"/>
      <path class="cls-1" d="M69.78,47c4.82,2.94,9.29.44,13.91-1.8,7.64-3.71,15.32-7.48,24-7.15,1.93.07,1.93-2.93,0-3-5.87-.22-11.32,1.24-16.72,3.48-5,2.09-14.32,9.16-19.7,5.88-1.65-1-3.16,1.58-1.51,2.59Z"/>
    </g>
  </g>
</svg>
