<svg id="Layer_2" data-name="Layer 2" xmlns="http://www.w3.org/2000/svg" width="92.33mm" height="53.15mm" viewBox="0 0 261.74 150.66">
  <defs>
    <style>
      .cls-1 {
        fill: #1d1d1b;
      }
    </style>
  </defs>
  <g>
    <path class="cls-1" d="M12.49,62c-.67-7.66.15-15.36-.65-23-.69-6.52-4.15-12-5.12-18.42L2.33,22.4c5.74,8.51,15.78,16.27,26.14,10.7,4.77-2.56,18.3-14.51,9.52-20-3.24-2-6.63.05-8.14,3.08-2.27,4.57-1.2,10.72-.92,15.59.79,13.52,2.74,27,4.77,40.34,2.19,14.45,4.77,28.92,6,43.5.47,5.67,1.17,12.35-.46,17.85-1.06,3.56-3.55,7.45-6.88,9.3-4.6,2.56-9.67-.6-12.84-3.94-12.13-12.75.06-34.32,7.61-46.2a134.2,134.2,0,0,1,14.38-19c8.06-8.75,13.93-17.26,15.25-29.46L52,44.77c1.22,5.55-.62,11.66.34,17.36s4.76,12.54,11.22,13.3c7,.82,11.33-6.63,13-12.32,1.73-6.1,3.91-14.77,1.33-20.9-1.16-2.75-5.61-1.75-4.63,1.27,3.31,10.24,5.46,32.63,21.92,27.7,12.28-3.68,10-24.46,11.2-34.1.34-2.69-4.12-3.25-4.71-.64-2,8.59,6.63,13.47,12.46,17.93,3.21,2.47,8.22,6,8.88,10.31.51,3.34-5.38,7.91-6.07,3.29-.37-2.41,4.53-6,6-7.35,8-7.34,14.41-13.14,16.19-24.34,1.62-10.24-1-20-1.49-30.1-.16-3.07-4.88-3.11-4.8,0,.36,14,1,28.14,4.08,41.85,1.45,6.39,3.92,21.73,13.48,20.54,8-1,13-13,13.82-19.79,1.79-14.93.7-30.19-1.73-45l-4.63,1.27c1.64,6.89,1.6,14.34,2.32,21.37.92,9.07,1.93,18.36,4.61,27.11,1.66,5.42,4.49,12.94,10.86,14.12,7.65,1.41,10.25-7.75,11.2-13.52,1.33-8,2.38-18.86-1-26.47-1-2.14-4.68-1.11-4.47,1.21.9,10,.41,25.72,9.46,32.38,5.78,4.25,11,1.53,14-4.41,4.5-8.87,3.56-18.51,4.52-28.11.26-2.67-4.19-3.28-4.72-.63-2.11,10.58-.74,22.07.26,32.72,1.21,12.92,3.61,25.67,4.55,38.64q1.09,15,.8,30.13c-.1,4.82.35,11.69-5.13,13.74-4.83,1.8-9.66-1.55-12.06-5.52-10.14-16.74,3-38.26,13.67-51,13-15.55,29-33.23,50.67-34.54,3.06-.19,3.09-5,0-4.8-21.18,1.28-36.7,16.3-50.06,31.32-12.9,14.5-25.85,33-21.43,53.53,1.56,7.28,6.19,14.71,14.06,16,7.7,1.27,13.52-3.62,14.64-11.12,1.63-10.92.57-22.89-.1-33.87-.71-11.71-2.34-23.22-4-34.82-.75-5.21-1.11-10.52-1.47-15.77-.52-7.63-1.27-15.82.23-23.38l-4.71-.64c-.69,6.89,0,14.12-1.95,20.83-1,3.55-3,9.66-7.91,8.48-1.87-.44-3.25-3-4-4.54-3.82-7.39-3.78-16.53-4.51-24.63l-4.48,1.21c1.49,3.3,1.29,8,1.32,11.47a57.5,57.5,0,0,1-1.42,14.63c-.69,2.73-2,8-5.8,6.54-3-1.1-4.54-5.34-5.51-8-3.36-9.14-4.35-19.21-5.31-28.83-.74-7.28-.74-15-2.44-22.13-.73-3.06-5.12-1.72-4.63,1.27a167.15,167.15,0,0,1,2.21,35c-.25,5.38-.4,10.86-2.91,15.74-1.17,2.29-4.25,7.72-7.32,8-6.37.66-9-20-9.63-23.94-1.88-11.13-2.28-22.46-2.57-33.71h-4.8c.66,13.05,5.95,28.73-2.49,40.46C126.1,52.58,119.5,56.42,114.77,62c-2.48,2.92-3.78,7-1.11,10.29,6,7.34,16.05-2,13.84-9.53-1.37-4.66-5.61-8.28-9.25-11.18-4-3.15-13.35-7.76-12-13.83l-4.72-.63c-.64,5.23-.77,10.51-1.38,15.75-.48,4.24-1.09,10.9-5.27,13.27-12.13,6.89-15-17.52-17-23.89l-4.63,1.27c2.64,6.29-2.8,34.85-12.86,25-6.69-6.56-2-17-3.73-25-.63-2.84-4.44-1.87-4.72.64C50.1,61.07,35.69,71.69,26.47,84.91c-8.35,12-17.61,27.37-16.59,42.58a23,23,0,0,0,8.66,16.88c9,7.11,19.11,3.73,24-6.29,4.61-9.46,2.11-22.38.89-32.39-1.51-12.25-3.52-24.43-5.36-36.64-2.18-14.51-4.24-29.12-4.6-43.81,0-1.13-.5-3.91.08-4.91-.08-1.4.58-1.73,2-1a6.73,6.73,0,0,1-1.89,3.19A25.51,25.51,0,0,1,26,29C18.22,33,10.67,26.2,6.48,20a2.41,2.41,0,0,0-4.39,1.85c1,6.63,4.59,12.17,5.11,19,.54,7-.12,14.11.49,21.16.26,3.06,5.06,3.08,4.8,0Z"/>
    <path class="cls-1" d="M111.33,31.93c14.14,5.54,30.83-2.1,44.61-5.66,16.7-4.32,33.62-7.78,50.95-7.21,3.09.1,3.09-4.7,0-4.8-15.84-.52-31.44,2.22-46.76,6-7.9,1.94-15.73,4.17-23.6,6.24s-16,3.91-23.92.8c-2.88-1.12-4.13,3.52-1.28,4.63Z"/>
  </g>
</svg>
