<svg id="Layer_1" data-name="Layer 1" xmlns="http://www.w3.org/2000/svg" width="237.65" height="217.17" viewBox="0 0 237.65 217.17">
  <defs>
    <style>
      .cls-1 {
        fill: #fabc04;
      }

      .cls-2 {
        fill: #3c8bd9;
      }

      .cls-3 {
        fill: #34a852;
      }

      .cls-4 {
        fill: #e1c025;
      }
    </style>
  </defs>
  <path class="cls-1" d="M10,151.27c-.4.4-.4,1.1-1.1,1.1a1.68,1.68,0,0,1,.7-1.5l.4.4"/>
  <g>
    <path class="cls-2" d="M80.86,27.37A44.37,44.37,0,0,1,91,11.27a39.71,39.71,0,0,1,62.5,9.3c9.6,17.4,19.7,34.4,29.6,51.7,16.5,28.6,33.1,57.2,49.4,85.9,13.7,24-1.1,54.4-28.3,58.5-16.7,2.5-32.2-5.2-40.9-20.1-14.4-25.2-29-50.3-43.4-75.4a5.83,5.83,0,0,0-1.1-1.5c-1.5-1.2-2.2-3.1-3.2-4.7-6.4-11.3-13-22.5-19.4-33.7-4.1-7.3-8.4-14.4-12.5-21.7a39.94,39.94,0,0,1-5.3-21.1,30.41,30.41,0,0,1,2.5-11.1"/>
    <path class="cls-1" d="M80.86,27.37a52.41,52.41,0,0,0-1.8,10.5,41.51,41.51,0,0,0,5.7,22.5c10.5,18.1,21.1,36.3,31.5,54.4,1,1.6,1.7,3.3,2.7,4.8-5.7,10-11.5,19.8-17.3,29.8q-12,20.85-24.2,41.7c-.4,0-.5-.2-.6-.5a5.7,5.7,0,0,1,.4-2.2c3.9-14.4.7-27.1-9.2-38a36.76,36.76,0,0,0-22.5-11.6c-11.5-1.6-21.6,1.3-30.7,8.5-1.6,1.2-2.7,3.1-4.6,4a.67.67,0,0,1-.7-.5c4.6-7.9,9.1-15.9,13.7-23.8q28.35-49.35,56.9-98.7a3.51,3.51,0,0,0,.7-.9"/>
    <path class="cls-3" d="M10,151.27c1.8-1.6,3.5-3.3,5.5-4.9,23.3-18.4,58.2-5.1,63.3,24a42.72,42.72,0,0,1-1.5,20.4,7.49,7.49,0,0,1-.4,1.6c-.9,1.5-1.6,3.2-2.6,4.7-8.6,14.1-21.2,21-37.6,20-18.9-1.3-33.7-15.5-36.3-34.3a38.68,38.68,0,0,1,5.3-25.5c1-1.7,2.1-3.3,3.2-5,.4-.3.2-1,1.1-1"/>
    <path class="cls-4" d="M76.76,192.37c-.4-.7,0-1.1.4-1.6l.4.4-.8,1.2"/>
  </g>
</svg>
