<?xml version="1.0" encoding="utf-8"?>
<!-- Generator: Adobe Illustrator 25.4.1, SVG Export Plug-In . SVG Version: 6.00 Build 0)  -->
<svg version="1.1" id="Layer_1" xmlns="http://www.w3.org/2000/svg" xmlns:xlink="http://www.w3.org/1999/xlink" x="0px" y="0px"
	 viewBox="0 0 240 240" style="enable-background:new 0 0 240 240;" xml:space="preserve">
<style type="text/css">
	.st0{fill:#FABC04;}
	.st1{fill:#3C8BD9;}
	.st2{fill:#34A852;}
	.st3{fill:#E1C025;}
</style>
<path class="st0" d="M11.1,162.7c-0.4,0.4-0.4,1.1-1.1,1.1c0-0.6,0.2-1.2,0.7-1.5L11.1,162.7"/>
<g>
	<path class="st1" d="M81.6,38c2.2-6.1,5.7-11.6,10.2-16.3c15.9-15.5,41.3-15.1,56.7,0.7c2.5,2.6,4.7,5.5,6.4,8.6
		c9.7,17.6,19.9,34.7,29.9,52.2c16.7,28.9,33.4,57.8,49.9,86.7c13.8,24.2-1.1,54.9-28.6,59.1c-16.9,2.5-32.5-5.3-41.3-20.3
		c-14.5-25.4-29.3-50.8-43.8-76.1c-0.3-0.6-0.7-1.1-1.1-1.5c-1.5-1.2-2.2-3.1-3.2-4.7c-6.5-11.4-13.1-22.7-19.6-34
		C93,85,88.6,77.9,84.5,70.5c-3.7-6.5-5.6-13.8-5.4-21.3C79.3,45.3,80.1,41.5,81.6,38"/>
	<path class="st0" d="M81.6,38c-1,3.5-1.6,7-1.8,10.6c-0.3,8,1.7,15.8,5.8,22.7c10.6,18.3,21.3,36.7,31.8,54.9
		c1,1.6,1.7,3.3,2.7,4.8c-5.8,10.1-11.6,20-17.5,30.1c-8.1,14-16.2,28.1-24.4,42.1c-0.4,0-0.5-0.2-0.6-0.5c0-0.8,0.1-1.5,0.4-2.2
		c3.9-14.5,0.7-27.4-9.3-38.4c-5.9-6.5-14-10.6-22.7-11.7c-11.6-1.6-21.8,1.3-31,8.6c-1.6,1.2-2.7,3.1-4.6,4c-0.3,0-0.6-0.2-0.7-0.5
		c4.6-8,9.2-16.1,13.8-24c19.1-33.2,38.2-66.4,57.5-99.7C81.2,38.6,81.4,38.3,81.6,38"/>
	<path class="st2" d="M10.1,163.1c1.8-1.6,3.5-3.3,5.6-4.9c23.5-18.6,58.8-5.2,63.9,24.2c1.2,6.9,0.7,14-1.5,20.6
		c-0.1,0.6-0.2,1.1-0.4,1.6c-0.9,1.5-1.6,3.2-2.6,4.7c-8.7,14.2-21.4,21.2-38,20.2c-19.1-1.3-34-15.7-36.7-34.6
		c-1.2-8.9,0.6-18,5.4-25.8c1-1.7,2.1-3.3,3.2-5C9.4,163.8,9.2,163.1,10.1,163.1"/>
	<path class="st3" d="M77.5,204.6c-0.4-0.7,0-1.1,0.4-1.6l0.4,0.4L77.5,204.6"/>
</g>
</svg>
