<?xml version="1.0" encoding="utf-8"?>
<!-- Generator: Adobe Illustrator 25.4.1, SVG Export Plug-In . SVG Version: 6.00 Build 0)  -->
<svg version="1.1" id="Layer_1" xmlns="http://www.w3.org/2000/svg" xmlns:xlink="http://www.w3.org/1999/xlink" x="0px" y="0px"
	 viewBox="0 0 240 240" style="enable-background:new 0 0 240 240;" xml:space="preserve">
<style type="text/css">
	.st0{fill:#67788A;}
</style>
<g>
	<path class="st0" d="M120,0C53.7,0,0,53.7,0,120s53.7,120,120,120s120-53.7,120-120S186.3,0,120,0z M120,223.2
		C63,223.2,16.8,177,16.8,120S63,16.8,120,16.8S223.2,63,223.2,120c0,0,0,0,0,0C223.2,177,177,223.2,120,223.2z"/>
	
		<rect x="75" y="27.2" transform="matrix(0.7071 -0.7071 0.7071 0.7071 -35.3965 85.6601)" class="st0" width="21.3" height="116.7"/>
	
		<rect x="27.4" y="142.4" transform="matrix(0.7071 -0.7071 0.7071 0.7071 -83.1745 105.4485)" class="st0" width="116.7" height="21.3"/>
</g>
</svg>
