<?xml version="1.0" encoding="utf-8"?>
<!-- Generator: Adobe Illustrator 25.4.1, SVG Export Plug-In . SVG Version: 6.00 Build 0)  -->
<svg version="1.1" id="Layer_1" xmlns="http://www.w3.org/2000/svg" xmlns:xlink="http://www.w3.org/1999/xlink" x="0px" y="0px"
	 viewBox="0 0 75 75" style="enable-background:new 0 0 75 75;" xml:space="preserve">
<style type="text/css">
	.st0{fill:#0ACF83;}
	.st1{fill:#A259FF;}
	.st2{fill:#F24E1E;}
	.st3{fill:#FF7262;}
	.st4{fill:#1ABCFE;}
</style>
<g>
	<path class="st0" d="M25,75c6.9,0,12.5-5.6,12.5-12.5V50H25c-6.9,0-12.5,5.6-12.5,12.5S18.1,75,25,75z"/>
	<path class="st1" d="M12.5,37.5C12.5,30.6,18.1,25,25,25h12.5v25H25C18.1,50,12.5,44.4,12.5,37.5z"/>
	<path class="st2" d="M12.5,12.5C12.5,5.6,18.1,0,25,0h12.5v25H25C18.1,25,12.5,19.4,12.5,12.5z"/>
	<path class="st3" d="M37.5,0H50c6.9,0,12.5,5.6,12.5,12.5S56.9,25,50,25H37.5V0z"/>
	<path class="st4" d="M62.5,37.5C62.5,44.4,56.9,50,50,50s-12.5-5.6-12.5-12.5S43.1,25,50,25S62.5,30.6,62.5,37.5z"/>
</g>
</svg>
