<svg id="svg4243" xmlns="http://www.w3.org/2000/svg" width="131.2" height="151.92" viewBox="0 0 131.2 151.92">
  <defs>
    <style>
      .cls-1 {
        fill: #f8ab00;
      }

      .cls-2 {
        fill: #e37300;
      }
    </style>
  </defs>
  <g id="g6628">
    <path id="path3806" class="cls-1" d="M95,18.13V132.06c0,12.76,8.79,19.86,18.12,19.86,8.63,0,18.13-6,18.13-19.86V19c0-11.68-8.63-19-18.13-19A18.43,18.43,0,0,0,95,18.13Z"/>
    <path id="path3808" class="cls-2" d="M47.47,76v56.1c0,12.76,8.8,19.86,18.13,19.86,8.63,0,18.13-6,18.13-19.86V76.82c0-11.68-8.64-19-18.13-19A18.44,18.44,0,0,0,47.47,76Z"/>
    <path id="path3810" class="cls-2" d="M36.25,133.79a18.13,18.13,0,1,1-18.12-18.13,18.13,18.13,0,0,1,18.12,18.13"/>
  </g>
</svg>
