<?xml version="1.0" encoding="utf-8"?>
<!-- Generator: Adobe Illustrator 25.4.1, SVG Export Plug-In . SVG Version: 6.00 Build 0)  -->
<svg version="1.1" id="svg4243" xmlns="http://www.w3.org/2000/svg" xmlns:xlink="http://www.w3.org/1999/xlink" x="0px" y="0px"
	 viewBox="0 0 240 240" style="enable-background:new 0 0 240 240;" xml:space="preserve">
<style type="text/css">
	.st0{fill:#F8AB00;}
	.st1{fill:#E37300;}
</style>
<g id="g6628">
	<path id="path3806" class="st0" d="M166.4,28.6v179.9c0,20.2,13.9,31.4,28.6,31.4c13.6,0,28.6-9.5,28.6-31.4V30
		c0-18.4-13.6-30-28.6-30C179.3,0.3,166.7,12.9,166.4,28.6z"/>
	<path id="path3808" class="st1" d="M91.3,120v88.6c0,20.2,13.9,31.4,28.6,31.4c13.6,0,28.6-9.5,28.6-31.4v-87.3
		c0-18.4-13.6-30-28.6-30C104.2,91.6,91.6,104.3,91.3,120z"/>
	<path id="path3810" class="st1" d="M73.6,211.3c0,15.8-12.8,28.6-28.6,28.6s-28.6-12.8-28.6-28.6c0-15.8,12.8-28.6,28.6-28.6
		c0,0,0,0,0,0C60.8,182.7,73.6,195.5,73.6,211.3"/>
</g>
</svg>
