<?xml version="1.0" encoding="utf-8"?>
<!-- Generator: Adobe Illustrator 25.4.1, SVG Export Plug-In . SVG Version: 6.00 Build 0)  -->
<svg version="1.1" id="Layer_1" xmlns="http://www.w3.org/2000/svg" xmlns:xlink="http://www.w3.org/1999/xlink" x="0px" y="0px"
	 viewBox="0 0 240 299.3" style="enable-background:new 0 0 240 299.3;" xml:space="preserve">
<style type="text/css">
	.st0{fill:#3C8BD9;}
	.st1{fill:#FABC04;}
	.st2{fill:#34A852;}
	.st3{fill:#E1C025;}
	.st4{fill:#757575;}
</style>
<g>
	<path class="st0" d="M82.2,27.3c2.3-6,5.5-11.6,10.1-16.1c18.8-18.3,49.8-13.7,62.5,9.3c9.6,17.4,19.7,34.4,29.6,51.7
		c16.5,28.6,33.1,57.2,49.4,85.9c13.7,24-1.1,54.4-28.3,58.5c-16.7,2.5-32.2-5.2-40.9-20.1c-14.4-25.2-29-50.3-43.4-75.4
		c-0.3-0.6-0.7-1.1-1.1-1.5c-1.5-1.2-2.2-3.1-3.2-4.7c-6.4-11.3-13-22.5-19.4-33.7c-4.1-7.3-8.4-14.4-12.5-21.7
		c-3.7-6.5-5.5-13.6-5.3-21.1C80,34.6,80.5,30.8,82.2,27.3"/>
	<path class="st1" d="M82.2,27.3c-0.9,3.4-1.6,6.9-1.8,10.5c-0.3,8,1.7,15.5,5.7,22.5c10.5,18.1,21.1,36.3,31.5,54.4
		c1,1.6,1.7,3.3,2.7,4.8c-5.7,10-11.5,19.8-17.3,29.8c-8,13.9-16.1,27.8-24.2,41.7c-0.4,0-0.5-0.2-0.6-0.5c-0.1-0.8,0.2-1.4,0.4-2.2
		c3.9-14.4,0.7-27.1-9.2-38c-6-6.6-13.7-10.3-22.5-11.6c-11.5-1.6-21.6,1.3-30.7,8.5c-1.6,1.2-2.7,3.1-4.6,4c-0.4,0-0.6-0.2-0.7-0.5
		c4.6-7.9,9.1-15.9,13.7-23.8c18.9-32.9,37.9-65.8,56.9-98.7C81.7,28,82,27.7,82.2,27.3"/>
	<path class="st2" d="M11.3,151.2c1.8-1.6,3.5-3.3,5.5-4.9c23.3-18.4,58.2-5.1,63.3,24c1.2,7,0.6,13.7-1.5,20.4
		c-0.1,0.6-0.2,1.1-0.4,1.6c-0.9,1.5-1.6,3.2-2.6,4.7C67,211.1,54.4,218,38,217c-18.9-1.3-33.7-15.5-36.3-34.3
		c-1.2-9.1,0.6-17.6,5.3-25.5c1-1.7,2.1-3.3,3.2-5C10.6,151.9,10.4,151.2,11.3,151.2"/>
	<path class="st1" d="M11.3,151.2c-0.4,0.4-0.4,1.1-1.1,1.1c-0.1-0.7,0.3-1.1,0.7-1.5L11.3,151.2"/>
	<path class="st3" d="M78.1,192.3c-0.4-0.7,0-1.1,0.4-1.6c0.1,0.1,0.3,0.3,0.4,0.4L78.1,192.3"/>
	<path class="st4" d="M19.8,249.1C9,249.1,0,257.9,0,268.6c0,10.7,9,19.3,19.8,19.3c5.8,0,10.1-1.9,13.6-5.5
		c3.5-3.5,4.6-8.4,4.6-12.3c0-1.2-0.1-2.4-0.3-3.3H19.8v5.3h12.7c-0.4,3-1.3,5.2-2.9,6.7c-1.8,1.8-4.8,3.9-9.9,3.9
		c-7.8,0-14-6.3-14-14.1c0-7.8,6.1-14.1,14-14.1c4.2,0,7.4,1.6,9.6,3.8l3.7-3.7C30,251.5,25.7,249.1,19.8,249.1z M52.2,263
		c-6.8,0-12.4,5.3-12.4,12.6c0,7.3,5.6,12.6,12.4,12.6s12.4-5.4,12.4-12.6C64.7,268.4,59,263,52.2,263 M52.2,283.3
		c-3.7,0-7-3.2-7-7.7s3.3-7.7,7-7.7s7,3.1,7,7.7C59.2,280.2,56,283.3,52.2,283.3 M79.2,263c-6.9,0-12.4,5.3-12.4,12.6
		c0,7.3,5.6,12.6,12.4,12.6c6.8,0,12.4-5.4,12.4-12.6C91.7,268.4,86.1,263,79.2,263 M79.2,283.3c-3.7,0-7-3.2-7-7.7s3.3-7.7,7-7.7
		s7,3.1,7,7.7C86.2,280.2,83.1,283.3,79.2,283.3 M106.1,263c-6.2,0-11.9,5.5-11.9,12.5c0,7,5.6,12.4,11.9,12.4c3,0,5.3-1.3,6.5-2.9
		h0.2v1.8c0,4.8-2.5,7.4-6.6,7.4c-3.3,0-5.4-2.4-6.2-4.4l-4.8,2c1.3,3.3,5,7.4,11,7.4c6.4,0,11.8-3.8,11.8-13v-22.4h-5.2v2h-0.2
		C111.4,264.4,109.1,263,106.1,263 M106.6,283.1c-3.7,0-6.9-3.2-6.9-7.6c0-4.4,3.2-7.7,6.9-7.7c3.7,0,6.6,3.3,6.6,7.7
		C113.2,280,110.3,283.1,106.6,283.1 M122,250.7h5.5v36.9H122V250.7z M142.1,263c-6.5,0-12,5.1-12,12.6c0,7.1,5.4,12.6,12.5,12.6
		c5.8,0,9.2-3.5,10.5-5.6l-4.3-2.9c-1.4,2.1-3.4,3.4-6.2,3.4c-2.9,0-4.9-1.2-6.1-3.8l16.9-7l-0.6-1.4
		C151.9,268.3,148.6,263,142.1,263 M135.6,275.3c-0.2-4.9,3.8-7.4,6.6-7.4c2.2,0,4.1,1.1,4.7,2.7L135.6,275.3z"/>
	<path class="st4" d="M163.1,287l12.6-33.6h4.9l12.6,33.6h-4.8l-3.3-9.1h-14.1l-3.3,9.1H163.1z M172.5,273.9h11.2l-5.5-15.1h-0.2
		L172.5,273.9z"/>
	<path class="st4" d="M197.6,284.3c-2.1-2.4-3.2-5.3-3.2-8.7c0-3.3,1.1-6.2,3.2-8.7c2.2-2.4,4.7-3.5,7.8-3.5c1.7,0,3.3,0.4,4.6,1.1
		c1.4,0.8,2.5,1.6,3.3,2.9h0.2l-0.2-3.2v-10.6h4.3V287h-4.1v-3.2h-0.2c-0.8,1.1-1.8,2.1-3.3,2.9s-3,1.1-4.6,1.1
		C202.3,287.8,199.7,286.7,197.6,284.3 M211.2,281.6c1.4-1.5,2.1-3.5,2.1-6c0-2.4-0.7-4.4-2.1-5.9c-1.3-1.5-3.1-2.3-5.2-2.3
		c-2.1,0-3.8,0.8-5.2,2.3c-1.4,1.5-2.1,3.5-2.1,5.9c0,2.4,0.7,4.4,2.1,5.9c1.4,1.5,3.2,2.3,5.2,2.3
		C208.1,283.9,209.9,283.1,211.2,281.6"/>
	<path class="st4" d="M237.4,285.7c-1.7,1.3-3.9,2.1-6.6,2.1c-2.3,0-4.3-0.6-6.1-1.8c-1.7-1.2-3-2.8-3.7-4.8l3.8-1.6
		c0.6,1.3,1.3,2.5,2.5,3.3c1.1,0.8,2.3,1.1,3.5,1.1c1.3,0,2.5-0.3,3.4-0.9s1.3-1.3,1.3-2.1c0-1.4-1.1-2.6-3.3-3.3l-3.9-1
		c-4.5-1.1-6.7-3.3-6.7-6.5c0-2.1,0.9-3.7,2.6-5.1c1.7-1.2,3.9-1.9,6.5-1.9c2,0,3.8,0.5,5.6,1.4c1.6,1,2.8,2.3,3.4,3.9l-3.8,1.6
		c-0.5-1-1.1-1.7-2.1-2.3c-1-0.6-2.1-0.9-3.3-0.9c-1.1,0-2.1,0.3-3.1,0.9c-0.9,0.6-1.3,1.2-1.3,2.1c0,1.3,1.2,2.3,3.7,2.8l3.4,0.9
		c4.6,1.1,6.8,3.4,6.8,6.9C240.1,282.6,239.1,284.4,237.4,285.7"/>
</g>
</svg>
