<?xml version="1.0" encoding="utf-8"?>
<!-- Generator: Adobe Illustrator 25.4.1, SVG Export Plug-In . SVG Version: 6.00 Build 0)  -->
<svg version="1.1" id="Layer_1" xmlns="http://www.w3.org/2000/svg" xmlns:xlink="http://www.w3.org/1999/xlink" x="0px" y="0px"
	 viewBox="0 0 64.6 64.6" style="enable-background:new 0 0 64.6 64.6;" xml:space="preserve">
<g>
	<g>
		<path d="M42.1,23.4c0.3,0,0.7,0,1,0c0.2-0.4,0.2-1.1,0-1.9c-0.2-1.2-0.6-1.9-1.3-1.8c-0.7,0.1-0.7,1-0.5,2.1
			C41.5,22.4,41.8,23,42.1,23.4z"/>
		<path d="M36.2,24.3c0.5,0.2,0.8,0.4,0.9,0.2c0.1-0.1,0.1-0.2-0.1-0.4c-0.2-0.4-0.7-0.8-1.3-1c-1.1-0.5-2.4-0.3-3.4,0.4
			c-0.3,0.2-0.6,0.6-0.6,0.8c0,0.1,0.1,0.1,0.2,0.1c0.3,0,1.2-0.4,2.3-0.5C35,23.8,35.7,24.1,36.2,24.3z"/>
		<path d="M35.2,24.8c-0.6,0.1-1,0.3-1.2,0.5c-0.2,0.2-0.3,0.4-0.3,0.5c0,0,0,0.1,0,0.1c0,0,0.1,0,0.1,0c0.2,0,0.3-0.1,0.5-0.1
			c0.7-0.2,1.4-0.3,2.1-0.2c0.3,0,0.5,0.1,0.5-0.1c0-0.1,0-0.1,0-0.2C36.7,25.2,36.1,24.7,35.2,24.8z"/>
		<path d="M40.1,26.9c0.4,0.2,0.9,0.1,1.1-0.2c0.2-0.3-0.1-0.7-0.5-1c-0.4-0.2-0.9-0.1-1.1,0.2C39.4,26.3,39.6,26.7,40.1,26.9z"/>
		<path d="M42.9,24.5c-0.4,0-0.6,0.4-0.7,0.9s0.3,0.9,0.6,0.9c0.4,0,0.6-0.4,0.7-0.9C43.5,24.9,43.2,24.5,42.9,24.5z"/>
		<path d="M19.1,33.2c-0.1-0.1-0.2-0.1-0.4,0c-0.1,0-0.2,0-0.3,0c-0.2,0-0.5-0.1-0.6-0.3c-0.2-0.2-0.2-0.6,0-1
			c0-0.1,0.1-0.1,0.1-0.2c0.3-0.6,0.8-1.7,0.2-2.7c-0.4-0.8-1.1-1.2-1.8-1.3c-0.8-0.1-1.5,0.2-2,0.7c-0.8,0.9-0.9,2-0.8,2.5
			c0.1,0.2,0.1,0.2,0.2,0.2c0.1,0,0.3-0.1,0.5-0.4c0,0,0-0.1,0-0.1c0.1-0.3,0.2-0.5,0.3-0.8c0.2-0.3,0.5-0.5,0.9-0.6
			c0.4-0.1,0.8,0,1.1,0.2c0.5,0.4,0.8,1.1,0.5,1.7c-0.1,0.3-0.3,1-0.3,1.5c0.1,1.1,0.7,1.5,1.3,1.5c0.6,0,1-0.3,1.1-0.5
			C19.2,33.4,19.2,33.3,19.1,33.2z"/>
		<path d="M51.8,31.3c0-0.1-0.2-0.6-0.4-1.2c-0.1-0.4-0.2-0.7-0.4-1.1c0.8-1.2,0.8-2.2,0.7-2.8c-0.1-0.7-0.4-1.3-1-2
			s-1.9-1.3-3.6-1.8c-0.2-0.1-0.9-0.2-0.9-0.3c0,0,0-2.2-0.1-3.1c0-0.7-0.1-1.7-0.4-2.7c-0.4-1.4-1-2.6-1.9-3.3
			c2.3-2.4,3.7-5,3.7-7.2c0-4.3-5.3-5.6-11.8-2.9l-1.4,0.6c0,0-2.5-2.5-2.5-2.5C24.3-5.5,1.1,20.4,8.5,26.7l1.6,1.4
			c-0.4,1.2-0.6,2.4-0.5,3.7c0.2,1.7,1.1,3.4,2.5,4.7c1.4,1.2,3.2,2,4.9,2c2.9,6.7,9.5,10.8,17.3,11c8.3,0.2,15.3-3.7,18.2-10.7
			c0.2-0.5,1-2.7,1-4.7C53.6,32.1,52.5,31.3,51.8,31.3z M17.7,36.5c-0.3,0-0.5,0.1-0.8,0.1c-2.5-0.1-5.2-2.3-5.5-5
			c-0.3-3,1.2-5.2,3.9-5.8c0.4-0.1,0.7-0.1,1.1-0.1c1.5,0.1,3.7,1.2,4.2,4.5C21.2,33.1,20.5,36.1,17.7,36.5z M14.9,24
			c-1.7,0.3-3.1,1.3-4,2.6c-0.5-0.4-1.5-1.3-1.7-1.7c-1.4-2.7,1.6-8,3.7-11c5.2-7.4,13.3-13,17.1-12c0.6,0.2,2.6,2.5,2.6,2.5
			s-3.8,2.1-7.2,5C20.6,13,17.1,18.3,14.9,24z M41.3,35.4c0.1,0,0.1-0.1,0.1-0.1c0-0.1-0.1-0.1-0.2-0.1c0,0-3.9,0.6-7.7-0.8
			c0.4-1.3,1.5-0.8,3.1-0.7c2.5,0.1,5.1-0.1,7.5-0.8c1.7-0.5,3.9-1.4,5.6-2.8c0.4,0.9,0.6,1.8,0.8,2.7c0.3,0,0.6,0,0.8,0.2
			c0.4,0.2,0.6,0.7,0.4,1.8c-0.4,2.2-1.3,4-2.9,5.6c-1,1.1-2.1,1.9-3.4,2.6c-0.7,0.4-1.5,0.7-2.2,0.9c-5.9,1.9-11.9-0.2-13.9-4.7
			c-0.2-0.3-0.3-0.7-0.4-1.1c-0.8-3-0.1-6.6,2.1-8.9l0,0c0.1-0.1,0.3-0.3,0.3-0.5c0-0.2-0.1-0.4-0.2-0.5c-0.8-1.1-3.4-3-2.9-6.7
			c0.4-2.6,2.7-4.5,4.9-4.4l0.5,0c0.9,0.1,1.7,0.2,2.5,0.2c1.3,0.1,2.4-0.1,3.8-1.3c0.5-0.4,0.8-0.7,1.5-0.8c0.2,0,0.4-0.1,0.6-0.1
			c0.3,0,0.7,0.1,0.9,0.3c1.1,0.7,1.3,2.5,1.3,3.8c0,0.7,0.1,2.5,0.2,3c0.1,1.2,0.4,1.3,1,1.5c0.4,0.1,0.7,0.2,1.2,0.3
			c1.5,0.4,2.3,0.8,2.9,1.4c0.3,0.3,0.5,0.6,0.5,1c0.2,1.3-1,2.8-4,4.2c-3.3,1.5-7.3,1.9-10.1,1.6l-1-0.1c-2.2-0.3-3.5,2.6-2.2,4.5
			c0.9,1.3,3.2,2.1,5.5,2.1c5.4,0,9.5-2.3,11-4.3c0-0.1,0.1-0.1,0.1-0.2c0.1-0.1,0-0.2-0.1-0.1c-1.3,0.9-6.8,4.3-12.8,3.2
			c-0.5-0.1-0.9-0.2-1.4-0.4c-0.5-0.2-1.6-0.7-1.8-1.8C38.3,36.8,41.3,35.4,41.3,35.4z M33.7,34.5L33.7,34.5L33.7,34.5z M24.5,13.9
			c1.8-2.1,4.1-4,6.1-5c0,0,0.1,0,0.1,0c0,0,0,0.1,0,0.1c-0.2,0.3-0.5,0.9-0.6,1.4c0,0,0,0.1,0.1,0.1c0,0,0,0,0.1,0
			c1.3-0.9,3.5-1.8,5.4-1.9c0,0,0.1,0,0.1,0.1c0,0,0,0.1,0,0.1c-0.3,0.2-0.6,0.5-0.8,0.9c0,0,0,0.1,0,0.1c0,0,0,0,0,0
			c1.4,0,3.3,0.5,4.5,1.2c0.1,0,0,0.2-0.1,0.2c-1.9-0.4-5-0.8-8.2,0c-2.9,0.7-5,1.8-6.6,2.9c0,0-0.1,0-0.1,0
			C24.5,14,24.5,13.9,24.5,13.9L24.5,13.9z"/>
	</g>
	<g>
		<path d="M13.9,57.1c-0.9,0-1.4,0.7-1.6,1.2c-0.1,0.3-0.1,0.5-0.2,0.5c-0.1,0,0-0.2-0.1-0.6c-0.1-0.5-0.6-1.1-1.5-1.1
			c-1,0-1.4,0.8-1.6,1.3c-0.1,0.3-0.1,0.4-0.2,0.4c-0.1,0,0-0.2,0-0.5c0.1-0.3,0.1-0.7,0-1H7.2V63h2.1v-2.9c0-0.6,0.2-1.3,0.6-1.3
			c0.5,0,0.6,0.4,0.6,1V63h2.1v-2.9c0-0.5,0.2-1.3,0.6-1.3c0.5,0,0.6,0.5,0.6,1V63h2.1v-3.4C15.8,58.1,15.3,57.1,13.9,57.1z"/>
		<path d="M49.2,57.1c-0.9,0-1.4,0.7-1.6,1.2c-0.1,0.3-0.1,0.5-0.2,0.5c-0.1,0,0-0.2-0.1-0.6c-0.2-0.5-0.5-1.1-1.5-1.1
			c-1,0-1.4,0.8-1.6,1.3c-0.1,0.3-0.1,0.4-0.2,0.4c-0.1,0,0-0.2,0-0.5c0.1-0.3,0.1-0.7,0-1h-1.5V63h2.1v-2.9c0-0.6,0.2-1.3,0.6-1.3
			c0.5,0,0.6,0.4,0.6,1V63h2.1v-2.9c0-0.5,0.2-1.3,0.6-1.3c0.5,0,0.6,0.5,0.6,1V63h2.1v-3.4C51.1,58.1,50.6,57.1,49.2,57.1z"/>
		<path d="M19.3,57.1c-0.9,0-1.9,0.2-2.7,0.6v1.7c0,0,1.3-0.7,2.3-0.7c0.8,0,0.9,0.4,0.9,0.8c0,0-0.2-0.1-1-0.1
			c-1.7,0-2.6,0.8-2.6,2c0,1.2,1,1.7,1.8,1.7c1.2,0,1.7-0.8,1.9-1.2c0.1-0.3,0.1-0.4,0.2-0.4s0.1,0.1,0.1,0.4c0,0.4,0,0.7,0.1,1.1
			h1.6v-2.8C21.9,58.4,21.2,57.1,19.3,57.1z M18.8,61.7c-0.5,0.1-0.8,0-0.8-0.4c0-0.5,0.5-0.6,1.1-0.6c0.3,0,0.6,0,0.6,0
			C19.8,60.9,19.4,61.5,18.8,61.7L18.8,61.7z"/>
		<rect x="25.3" y="55.5" width="2.1" height="7.5"/>
		<path d="M29.7,60.1c0-0.5,0.5-1,1.4-1c0.7,0,1.3,0.2,1.9,0.6v-2c0,0-0.6-0.6-2.1-0.6c-1.6,0-2.9,0.9-2.9,2.9c0,2,1.2,3.1,2.9,3.1
			c0.8,0,1.5-0.2,2.1-0.7v-1.9c-0.2,0.1-0.9,0.6-1.9,0.6C30,61.1,29.7,60.7,29.7,60.1z"/>
		<path d="M37.1,57.1c-1.2,0-1.7,1.1-1.8,1.3c-0.1,0.2-0.1,0.3-0.2,0.3c-0.1,0,0-0.2,0-0.4c0.2-0.6,0.3-1.3,0.3-2
			c0-0.6-0.1-0.9-0.1-0.9h-1.8V63h2.1v-2.9c0-0.5,0.2-1.3,0.7-1.3c0.4,0,0.6,0.3,0.6,1V63H39v-3C39,58.5,38.8,57.1,37.1,57.1z"/>
		<path d="M39.7,57.3V63h2.1v-5.7c0,0-0.4,0.2-1,0.2C40.1,57.5,39.7,57.3,39.7,57.3z"/>
		<ellipse cx="40.7" cy="56.3" rx="1.3" ry="0.8"/>
		<path d="M22.5,57.3V63h2.1v-5.7c0,0-0.3,0.2-1,0.2C22.9,57.5,22.5,57.3,22.5,57.3z"/>
		<ellipse cx="23.6" cy="56.3" rx="1.3" ry="0.8"/>
		<path d="M55.3,57.1c-1.1,0-1.6,0.8-1.8,1.3c-0.1,0.3-0.1,0.4-0.2,0.4c-0.1,0,0-0.2,0-0.5c0.1-0.3,0.1-0.7,0-1h-1.5v7.3h2.1v-2.3
			c0.2,0.4,0.7,0.9,1.4,0.9c1.5,0,2.3-1.3,2.3-3C57.5,58.2,56.6,57.1,55.3,57.1z M54.7,61.8c-0.5,0-0.8-0.6-0.8-1.4
			c0-0.8,0.4-1.4,0.8-1.4c0.6,0,0.8,0.5,0.8,1.4C55.5,61.3,55.3,61.8,54.7,61.8L54.7,61.8z"/>
	</g>
</g>
</svg>
