<?xml version="1.0" encoding="utf-8"?>
<!-- Generator: Adobe Illustrator 25.4.1, SVG Export Plug-In . SVG Version: 6.00 Build 0)  -->
<svg version="1.1" id="Layer_1" xmlns="http://www.w3.org/2000/svg" xmlns:xlink="http://www.w3.org/1999/xlink" x="0px" y="0px"
	 viewBox="0 0 50 50" style="enable-background:new 0 0 50 50;" xml:space="preserve">
<style type="text/css">
	.st0{clip-path:url(#SVGID_00000050641281070459524950000011277727025494509964_);}
	.st1{fill:#00749A;}
	.st2{fill:#464342;}
</style>
<g>
	<g>
		<defs>
			<rect id="SVGID_1_" width="50" height="50"/>
		</defs>
		<clipPath id="SVGID_00000011033505651748002710000006541101676081883314_">
			<use xlink:href="#SVGID_1_"  style="overflow:visible;"/>
		</clipPath>
		<g style="clip-path:url(#SVGID_00000011033505651748002710000006541101676081883314_);">
			<path class="st1" d="M127.8,19.7h-8.7v0.9c2.7,0,3.1,0.6,3.1,4v6.2c0,3.4-0.4,4.1-3.1,4.1c-2.1-0.3-3.5-1.4-5.4-3.5l-2.2-2.4
				c3-0.5,4.6-2.4,4.6-4.6c0-2.7-2.3-4.7-6.5-4.7H101v0.9c2.7,0,3.1,0.6,3.1,4v6.2c0,3.4-0.4,4.1-3.1,4.1v0.9h9.6v-0.9
				c-2.7,0-3.1-0.6-3.1-4.1v-1.7h0.8l5.4,6.7h14.1c6.9,0,9.9-3.7,9.9-8.1C137.7,23.3,134.7,19.7,127.8,19.7L127.8,19.7z M107.5,27.6
				v-6.4h2c2.2,0,3.2,1.5,3.2,3.2c0,1.7-1,3.2-3.2,3.2L107.5,27.6z M128,34.3h-0.3c-1.7,0-2-0.4-2-2.7V21.1h2.3c5,0,6,3.7,6,6.5
				C133.9,30.6,133,34.3,128,34.3z M74,29.4l3.3-9.9c1-2.9,0.5-3.7-2.6-3.7v-1h9.1v1c-3.1,0-3.8,0.7-5,4.3l-5.5,16.6h-0.6l-4.9-15.2
				l-5,15.2h-0.6l-5.4-16.6c-1.2-3.5-1.9-4.3-4.7-4.3v-1h10.8v1c-2.9,0-3.6,0.7-2.6,3.7l3.2,9.9l4.9-14.5h0.9L74,29.4L74,29.4z
				 M90.5,36.4c-5.3,0-9.7-3.9-9.7-8.7c0-4.7,4.4-8.7,9.7-8.7s9.7,3.9,9.7,8.7C100.2,32.5,95.8,36.4,90.5,36.4z M90.5,20.6
				c-4.5,0-6,4-6,7.2c0,3.2,1.6,7.2,6,7.2c4.5,0,6.1-4,6.1-7.2C96.6,24.6,95,20.6,90.5,20.6L90.5,20.6z"/>
			<path class="st2" d="M149.7,34.8v1h-11.1v-1c3.2,0,3.8-0.8,3.8-5.7v-7.8c0-4.8-0.6-5.6-3.8-5.6v-1h10c5,0,7.8,2.6,7.8,6
				c0,3.3-2.8,6-7.8,6h-2.8v2.4C145.9,34,146.5,34.8,149.7,34.8L149.7,34.8z M148.6,16.6h-2.8V25h2.8c2.7,0,4-1.9,4-4.2
				C152.6,18.5,151.4,16.6,148.6,16.6z M189.7,31.3l-0.2,0.9c-0.4,1.6-1,2.2-4.4,2.2h-0.7c-2.5,0-3-0.6-3-4v-2.2
				c3.8,0,4.1,0.3,4.1,2.9h0.9v-7.2h-0.9c0,2.5-0.3,2.9-4.1,2.9v-5.4h2.7c3.4,0,4,0.6,4.4,2.2l0.2,0.9h0.8l-0.3-4.6h-14.2v0.9
				c2.7,0,3.2,0.6,3.2,4v6.2c0,3.1-0.4,3.9-2.5,4.1c-2-0.3-3.4-1.4-5.3-3.5l-2.2-2.4c3-0.5,4.6-2.4,4.6-4.6c0-2.7-2.3-4.7-6.5-4.7
				h-8.5v0.9c2.7,0,3.2,0.6,3.2,4v6.2c0,3.4-0.4,4.1-3.2,4.1v0.9h9.6v-0.9c-2.7,0-3.2-0.6-3.2-4.1v-1.7h0.8l5.4,6.7h19.9l0.3-4.6
				L189.7,31.3L189.7,31.3z M164,27.6v-6.4h2c2.2,0,3.2,1.5,3.2,3.2c0,1.7-1,3.2-3.2,3.2L164,27.6z M199.5,36.4
				c-1.9,0-3.6-1-4.4-1.6c-0.2,0.2-0.7,1-0.8,1.6h-0.9v-6.7h1c0.4,3.2,2.6,5.1,5.5,5.1c1.6,0,2.8-0.9,2.8-2.3c0-1.3-1.1-2.2-3.1-3.2
				l-2.8-1.3c-1.9-0.9-3.4-2.5-3.4-4.7c0-2.3,2.2-4.3,5.2-4.3c1.6,0,3,0.6,3.8,1.3c0.2-0.2,0.5-0.7,0.6-1.3h0.9v5.7h-1
				c-0.3-2.3-1.6-4.2-4.2-4.2c-1.4,0-2.6,0.8-2.6,2c0,1.3,1,1.9,3.3,3l2.7,1.3c2.3,1.1,3.2,2.9,3.2,4.4
				C205.4,34.3,202.8,36.4,199.5,36.4L199.5,36.4z M214.5,36.4c-1.9,0-3.6-1-4.4-1.6c-0.2,0.2-0.7,1-0.8,1.6h-0.9v-6.7h1
				c0.4,3.2,2.6,5.1,5.5,5.1c1.6,0,2.8-0.9,2.8-2.3c0-1.3-1.1-2.2-3.1-3.2l-2.8-1.3c-1.9-0.9-3.4-2.5-3.4-4.7c0-2.3,2.2-4.3,5.2-4.3
				c1.6,0,3,0.6,3.8,1.3c0.2-0.2,0.5-0.7,0.6-1.3h0.9v5.7h-1c-0.3-2.3-1.6-4.2-4.2-4.2c-1.4,0-2.6,0.8-2.6,2c0,1.3,1,1.9,3.3,3
				l2.7,1.3c2.3,1.1,3.2,2.9,3.2,4.4C220.4,34.3,217.7,36.4,214.5,36.4L214.5,36.4z"/>
			<g>
				<path class="st1" d="M3.6,25c0,8.5,4.9,15.8,12.1,19.3l-10.2-28C4.2,19,3.6,22,3.6,25L3.6,25z M39.5,23.9c0-2.7-1-4.5-1.8-5.9
					c-1.1-1.8-2.1-3.3-2.1-5c0-2,1.5-3.8,3.6-3.8c0.1,0,0.2,0,0.3,0C35.7,5.7,30.6,3.6,25,3.6c-7.5,0-14.1,3.8-17.9,9.7
					c0.5,0,1,0,1.4,0c2.2,0,5.7-0.3,5.7-0.3c1.2-0.1,1.3,1.6,0.1,1.8c0,0-1.2,0.1-2.5,0.2l7.8,23.2l4.7-14.1L21,14.9
					c-1.2-0.1-2.2-0.2-2.2-0.2c-1.2-0.1-1-1.8,0.1-1.8c0,0,3.5,0.3,5.6,0.3c2.2,0,5.7-0.3,5.7-0.3c1.2-0.1,1.3,1.6,0.1,1.8
					c0,0-1.2,0.1-2.5,0.2L35.7,38l2.1-7.1C38.8,27.9,39.5,25.8,39.5,23.9L39.5,23.9z"/>
				<path class="st1" d="M25.4,26.9l-6.4,18.7c2,0.6,4,0.9,6.1,0.9c2.5,0,4.9-0.4,7.1-1.2C32.1,45.1,32,45,32,44.9L25.4,26.9z
					 M43.8,14.7c0.1,0.7,0.1,1.4,0.1,2.2c0,2.2-0.4,4.6-1.6,7.7l-6.6,18.9c6.4-3.7,10.7-10.6,10.7-18.5
					C46.5,21.4,45.5,17.9,43.8,14.7L43.8,14.7z"/>
				<path class="st1" d="M25,0C11.2,0,0,11.2,0,25c0,13.8,11.2,25,25,25c13.8,0,25-11.2,25-25C50,11.2,38.8,0,25,0z M25,48.9
					C11.8,48.9,1.1,38.2,1.1,25C1.1,11.8,11.8,1.1,25,1.1c13.2,0,23.9,10.7,23.9,23.9C48.9,38.2,38.2,48.9,25,48.9L25,48.9z"/>
			</g>
		</g>
	</g>
</g>
</svg>
